<svg width="201" height="206" viewBox="0 0 201 206" fill="none" xmlns="http://www.w3.org/2000/svg">
<rect y="5" width="201" height="201" rx="50" fill="#FF4D00"/>
<path d="M49.624 162V48.6H102.274C111.778 48.6 120.256 50.058 127.708 52.974C135.16 55.89 141.424 59.94 146.5 65.124C151.684 70.308 155.572 76.302 158.164 83.106C160.864 89.91 162.214 97.308 162.214 105.3C162.214 113.292 160.864 120.744 158.164 127.656C155.572 134.568 151.684 140.616 146.5 145.8C141.424 150.876 135.16 154.872 127.708 157.788C120.256 160.596 111.778 162 102.274 162H49.624ZM67.12 146.934L66.634 145.152H101.464C108.7 145.152 114.964 144.18 120.256 142.236C125.548 140.184 129.922 137.376 133.378 133.812C136.834 130.248 139.426 126.036 141.154 121.176C142.882 116.316 143.746 111.024 143.746 105.3C143.746 99.576 142.882 94.338 141.154 89.586C139.426 84.726 136.834 80.514 133.378 76.95C129.922 73.278 125.548 70.47 120.256 68.526C114.964 66.474 108.7 65.448 101.464 65.448H66.148L67.12 63.99V146.934Z" fill="white"/>
<circle cx="112" cy="105" r="14" fill="white"/>
</svg>
